<?xml version="1.0" encoding="utf-8"?>
<!-- Generator: Adobe Illustrator 22.0.0, SVG Export Plug-In . SVG Version: 6.00 Build 0)  -->
<svg version="1.1" id="Layer_1" xmlns="http://www.w3.org/2000/svg" xmlns:xlink="http://www.w3.org/1999/xlink" x="0px" y="0px"
	 viewBox="0 0 28 24" style="enable-background:new 0 0 28 24;" xml:space="preserve">
<path d="M22,2h-8c-1.1,0-2,0.9-2,2l0,16c0,1.1,0.9,2,2,2h12c1.1,0,2-0.9,2-2V8L22,2z M24,18h-8v-2h8V18z M24,14h-8v-2h8V14z M21,9
	V3.5L26.5,9H21z"/>
<path d="M10,13H6v4H4v-4H0v-2h4V7h2v4h4V13z"/>
</svg>
