<?xml version="1.0" encoding="utf-8"?>
<!-- Generator: Adobe Illustrator 23.0.4, SVG Export Plug-In . SVG Version: 6.00 Build 0)  -->
<svg version="1.1" xmlns="http://www.w3.org/2000/svg" xmlns:xlink="http://www.w3.org/1999/xlink" x="0px" y="0px"
	 viewBox="0 0 343.15 77.47" style="enable-background:new 0 0 343.15 77.47;" xml:space="preserve">
<style type="text/css">
	.st0{fill:#19A7F1;}
	.st1{fill:#2D508A;}
</style>
<g id="V5">
	<g>
		<g>
			<path class="st0" d="M110.28,52.9h-8.11L90.99,36.02l-5.48,5.41V52.9h-6.72V0.58h6.72v32.22L101,17.1h8.62v0.29L95.67,31.27
				l14.61,21.34V52.9z"/>
			<path class="st0" d="M110.94,35c0-5.5,1.73-10.06,5.19-13.66c3.51-3.6,7.92-5.41,13.23-5.41c5.31,0,9.69,1.8,13.15,5.41
				c3.51,3.61,5.26,8.16,5.26,13.66c0,5.55-1.75,10.11-5.26,13.66c-3.46,3.61-7.84,5.41-13.15,5.41c-5.31,0-9.72-1.8-13.23-5.41
				C112.67,45.06,110.94,40.5,110.94,35z M117.66,35c0,3.85,1.12,6.97,3.36,9.35s5.02,3.58,8.33,3.58c3.31,0,6.09-1.19,8.33-3.58
				c2.24-2.39,3.36-5.5,3.36-9.35c0-3.8-1.12-6.89-3.36-9.28c-2.29-2.44-5.07-3.65-8.33-3.65c-3.26,0-6.04,1.22-8.33,3.65
				C118.78,28.11,117.66,31.2,117.66,35z"/>
			<path class="st0" d="M151.86,35c0-5.5,1.73-10.06,5.19-13.66c3.51-3.6,7.92-5.41,13.23-5.41c5.31,0,9.69,1.8,13.15,5.41
				c3.51,3.61,5.26,8.16,5.26,13.66c0,5.55-1.75,10.11-5.26,13.66c-3.46,3.61-7.84,5.41-13.15,5.41c-5.31,0-9.72-1.8-13.23-5.41
				C153.58,45.06,151.86,40.5,151.86,35z M158.58,35c0,3.85,1.12,6.97,3.36,9.35s5.02,3.58,8.33,3.58c3.31,0,6.09-1.19,8.33-3.58
				c2.24-2.39,3.36-5.5,3.36-9.35c0-3.8-1.12-6.89-3.36-9.28c-2.29-2.44-5.07-3.65-8.33-3.65c-3.26,0-6.04,1.22-8.33,3.65
				C159.7,28.11,158.58,31.2,158.58,35z"/>
			<path class="st0" d="M201.18,0.58V52.9h-6.72V0.58H201.18z"/>
			<path class="st0" d="M218.06,4.75c0,1.31-0.46,2.44-1.39,3.36c-0.93,0.93-2.05,1.39-3.36,1.39c-1.31,0-2.44-0.46-3.36-1.39
				c-0.93-0.92-1.39-2.05-1.39-3.36c0-1.32,0.46-2.44,1.39-3.36c0.92-0.92,2.05-1.39,3.36-1.39c1.32,0,2.44,0.46,3.36,1.39
				C217.59,2.31,218.06,3.43,218.06,4.75z M216.67,17.1v35.8h-6.72V17.1H216.67z"/>
			<path class="st0" d="M256.93,52.9h-8.11l-11.18-16.88l-5.48,5.41V52.9h-6.72V0.58h6.72v32.22l15.49-15.71h8.62v0.29l-13.96,13.88
				l14.61,21.34V52.9z"/>
			<path class="st0" d="M257.58,35c0-5.5,1.73-10.06,5.19-13.66c3.51-3.6,7.92-5.41,13.23-5.41c5.31,0,9.69,1.8,13.15,5.41
				c3.51,3.61,5.26,8.16,5.26,13.66c0,5.55-1.75,10.11-5.26,13.66c-3.46,3.61-7.84,5.41-13.15,5.41c-5.31,0-9.72-1.8-13.23-5.41
				C259.31,45.06,257.58,40.5,257.58,35z M264.31,35c0,3.85,1.12,6.97,3.36,9.35s5.02,3.58,8.33,3.58c3.31,0,6.09-1.19,8.33-3.58
				c2.24-2.39,3.36-5.5,3.36-9.35c0-3.8-1.12-6.89-3.36-9.28c-2.29-2.44-5.07-3.65-8.33-3.65c-3.26,0-6.04,1.22-8.33,3.65
				C265.43,28.11,264.31,31.2,264.31,35z"/>
			<path class="st0" d="M337.01,53.49c-2.92,0-5.35-0.9-7.27-2.7c-1.92-1.8-2.91-4.31-2.96-7.53V23.24h-16.66v18.05
				c0,2.1,0.43,3.61,1.28,4.53c0.85,0.93,1.86,1.39,3.03,1.39c1.12,0,2.19-0.22,3.21-0.66l2.12,5.99c-1.75,0.63-3.8,0.95-6.14,0.95
				c-2.92,0-5.35-0.9-7.27-2.7c-1.92-1.8-2.91-4.31-2.96-7.53V23.24h-6.28V17.1h6.28V6.14h6.72V17.1h16.66V6.14h6.72V17.1h8.77v6.14
				h-8.77v17.83c0,2.39,0.46,4.01,1.39,4.86c0.92,0.85,1.97,1.28,3.14,1.28c0.54,0,1.06-0.06,1.57-0.18
				c0.51-0.12,0.99-0.28,1.42-0.48l2.12,5.99C341.39,53.17,339.35,53.49,337.01,53.49z"/>
		</g>
	</g>
	<g>
		<g>
			<path class="st1" d="M62.58,53.05H18.65C8.37,53.05,0,44.68,0,34.4s8.37-18.65,18.65-18.65h37.79c6.54,0,11.86,5.32,11.86,11.86
				c0,6.54-5.32,11.86-11.86,11.86H22.72c-1.8,0-3.26-1.46-3.26-3.26s1.46-3.26,3.26-3.26h33.72c2.94,0,5.34-2.4,5.34-5.34
				s-2.4-5.34-5.34-5.34H18.65c-6.69,0-12.13,5.44-12.13,12.13c0,6.69,5.44,12.13,12.13,12.13h43.92c1.8,0,3.26,1.46,3.26,3.26
				S64.38,53.05,62.58,53.05z"/>
		</g>
	</g>
	<g>
		<g>
			<path class="st1" d="M79.78,77.25v-9.67h2.96c1.48,0,2.66,0.45,3.56,1.34c0.9,0.89,1.34,2.06,1.34,3.5c0,1.45-0.45,2.62-1.34,3.5
				c-0.9,0.89-2.08,1.33-3.56,1.33H79.78z M81.02,68.77v7.29h1.71c1.12,0,2.01-0.32,2.66-0.96c0.65-0.64,0.97-1.54,0.97-2.68
				c0-1.13-0.32-2.03-0.97-2.67c-0.65-0.65-1.53-0.97-2.66-0.97H81.02z"/>
			<path class="st1" d="M93.05,77.25h-1.24v-9.67h1.24V77.25z"/>
			<path class="st1" d="M106.86,72.81c0,1.35-0.4,2.43-1.2,3.23c-0.9,0.95-2.08,1.43-3.55,1.43c-1.4,0-2.59-0.49-3.56-1.46
				c-0.97-0.97-1.46-2.17-1.46-3.59s0.49-2.62,1.46-3.59c0.97-0.97,2.16-1.46,3.56-1.46c0.71,0,1.38,0.13,2.01,0.38
				s1.15,0.61,1.55,1.07l-0.89,0.89c-0.3-0.36-0.68-0.64-1.15-0.84c-0.47-0.2-0.98-0.3-1.52-0.3c-1.05,0-1.94,0.37-2.67,1.09
				c-0.72,0.74-1.08,1.66-1.08,2.77s0.36,2.03,1.08,2.77c0.73,0.73,1.62,1.09,2.67,1.09c0.96,0,1.76-0.27,2.4-0.81
				c0.64-0.54,1.01-1.28,1.11-2.23h-3.51v-1.16h4.68C106.84,72.33,106.86,72.58,106.86,72.81z"/>
			<path class="st1" d="M112.32,77.25h-1.24v-9.67h1.24V77.25z"/>
			<path class="st1" d="M120.25,68.77v8.48h-1.24v-8.48h-2.7v-1.19h6.64v1.19H120.25z"/>
			<path class="st1" d="M126.64,77.25h-1.38l3.64-9.67h1.4l3.65,9.67h-1.38l-0.93-2.62h-4.06L126.64,77.25z M129.58,69.11L128,73.47
				h3.21l-1.58-4.36H129.58z"/>
			<path class="st1" d="M138.36,77.25h-1.38l3.64-9.67h1.4l3.65,9.67h-1.38l-0.93-2.62h-4.06L138.36,77.25z M141.3,69.11l-1.58,4.36
				h3.21l-1.58-4.36H141.3z"/>
			<path class="st1" d="M154.94,77.25h-5.43v-9.67h1.24v8.48h4.19V77.25z"/>
			<path class="st1" d="M164.9,74.67c0,0.85-0.31,1.53-0.93,2.04c-0.63,0.5-1.4,0.76-2.29,0.76c-0.8,0-1.51-0.23-2.12-0.7
				c-0.61-0.47-1.04-1.11-1.27-1.92l1.19-0.49c0.08,0.29,0.19,0.55,0.34,0.78c0.14,0.23,0.31,0.43,0.51,0.6
				c0.19,0.17,0.41,0.3,0.64,0.39c0.23,0.09,0.48,0.14,0.74,0.14c0.57,0,1.03-0.15,1.39-0.44c0.36-0.29,0.54-0.68,0.54-1.17
				c0-0.41-0.15-0.75-0.45-1.04c-0.28-0.28-0.8-0.55-1.57-0.81c-0.77-0.28-1.25-0.47-1.44-0.57c-1.03-0.52-1.54-1.29-1.54-2.31
				c0-0.71,0.28-1.32,0.85-1.82c0.58-0.5,1.28-0.76,2.12-0.76c0.74,0,1.38,0.19,1.92,0.57c0.54,0.37,0.9,0.83,1.08,1.39l-1.16,0.49
				c-0.11-0.36-0.32-0.66-0.64-0.9s-0.71-0.36-1.17-0.36c-0.49,0-0.9,0.14-1.23,0.41c-0.33,0.25-0.5,0.58-0.5,0.99
				c0,0.33,0.13,0.62,0.39,0.86c0.29,0.24,0.91,0.53,1.88,0.86c0.98,0.33,1.68,0.74,2.1,1.22C164.69,73.38,164.9,73.97,164.9,74.67z
				"/>
			<path class="st1" d="M174.74,67.59v1.19h-4.4v3.06h3.97V73h-3.97v3.06h4.4v1.19h-5.64v-9.67H174.74z"/>
			<path class="st1" d="M179.11,77.25v-9.67h2.96c1.48,0,2.66,0.45,3.56,1.34c0.9,0.89,1.34,2.06,1.34,3.5
				c0,1.45-0.45,2.62-1.34,3.5c-0.9,0.89-2.08,1.33-3.56,1.33H179.11z M180.35,68.77v7.29h1.71c1.12,0,2.01-0.32,2.66-0.96
				c0.65-0.64,0.97-1.54,0.97-2.68c0-1.13-0.32-2.03-0.97-2.67c-0.65-0.65-1.53-0.97-2.66-0.97H180.35z"/>
			<path class="st1" d="M206,72.42c0,1.43-0.48,2.63-1.43,3.59c-0.96,0.97-2.14,1.46-3.54,1.46c-1.4,0-2.58-0.49-3.54-1.46
				c-0.95-0.96-1.43-2.16-1.43-3.59s0.48-2.63,1.43-3.59c0.95-0.97,2.13-1.46,3.54-1.46c1.4,0,2.58,0.49,3.54,1.47
				C205.53,69.8,206,71,206,72.42z M197.34,72.42c0,1.12,0.35,2.04,1.05,2.77c0.71,0.73,1.59,1.09,2.65,1.09
				c1.05,0,1.93-0.37,2.63-1.09c0.71-0.72,1.07-1.64,1.07-2.77s-0.36-2.05-1.07-2.77c-0.7-0.73-1.58-1.09-2.63-1.09
				c-1.05,0-1.94,0.37-2.65,1.09C197.69,70.38,197.34,71.3,197.34,72.42z M201.81,66.75c-0.22,0-0.52-0.1-0.9-0.3
				c-0.38-0.2-0.61-0.3-0.67-0.3c-0.28,0-0.43,0.16-0.45,0.47h-1.03c0-0.48,0.15-0.86,0.44-1.15c0.29-0.29,0.65-0.44,1.06-0.44
				c0.26,0,0.62,0.14,1.09,0.41c0.27,0.13,0.43,0.2,0.47,0.2c0.28,0,0.43-0.16,0.45-0.47h1.03c0,0.48-0.15,0.86-0.44,1.15
				C202.57,66.6,202.22,66.75,201.81,66.75z"/>
			<path class="st1" d="M211.42,73.34v3.92h-1.24v-9.67h3.29c0.84,0,1.55,0.28,2.13,0.84c0.59,0.56,0.89,1.24,0.89,2.04
				c0,0.82-0.3,1.5-0.89,2.05c-0.58,0.55-1.29,0.82-2.13,0.82H211.42z M211.42,68.77v3.38h2.08c0.5,0,0.9-0.17,1.23-0.5
				c0.33-0.33,0.5-0.73,0.5-1.19c0-0.45-0.17-0.84-0.5-1.17c-0.32-0.34-0.73-0.51-1.23-0.51H211.42z"/>
			<path class="st1" d="M221.73,73.34v3.92h-1.24v-9.67h3.29c0.84,0,1.55,0.28,2.13,0.84c0.59,0.56,0.89,1.24,0.89,2.04
				c0,0.82-0.3,1.5-0.89,2.05c-0.58,0.55-1.29,0.82-2.13,0.82H221.73z M221.73,68.77v3.38h2.08c0.5,0,0.9-0.17,1.23-0.5
				c0.33-0.33,0.5-0.73,0.5-1.19c0-0.45-0.17-0.84-0.5-1.17c-0.32-0.34-0.73-0.51-1.23-0.51H221.73z"/>
			<path class="st1" d="M236.45,67.59v1.19h-4.4v3.06h3.97V73h-3.97v3.06h4.4v1.19h-5.64v-9.67H236.45z"/>
			<path class="st1" d="M242.06,77.25h-1.24v-9.67h1.24l3.36,5.89h0.05l3.36-5.89h1.24v9.67h-1.24v-5.74l0.05-1.62h-0.05l-3.02,5.31
				h-0.73l-3.02-5.31h-0.05l0.05,1.62V77.25z"/>
			<path class="st1" d="M255.29,77.25h-1.38l3.64-9.67h1.4l3.65,9.67h-1.38l-0.93-2.62h-4.06L255.29,77.25z M258.24,69.11
				l-1.58,4.36h3.21l-1.58-4.36H258.24z"/>
			<path class="st1" d="M268.86,68.77v8.48h-1.24v-8.48h-2.7v-1.19h6.64v1.19H268.86z"/>
			<path class="st1" d="M281.2,67.59v1.19h-4.4v3.06h3.97V73h-3.97v3.06h4.4v1.19h-5.64v-9.67H281.2z"/>
			<path class="st1" d="M286.82,77.25h-1.24v-9.67h3.29c0.84,0,1.55,0.28,2.14,0.83c0.59,0.55,0.88,1.24,0.88,2.05
				c0,0.67-0.22,1.26-0.66,1.77c-0.44,0.52-0.99,0.85-1.65,0.99l-0.03,0.04l2.71,3.93v0.05h-1.47l-2.61-3.92h-1.38V77.25z
				 M286.82,68.77v3.4h2c0.5,0,0.93-0.16,1.28-0.49c0.35-0.33,0.53-0.74,0.53-1.22c0-0.45-0.17-0.84-0.49-1.18
				c-0.33-0.34-0.74-0.51-1.24-0.51H286.82z"/>
			<path class="st1" d="M298.3,77.47c-0.73,0-1.36-0.2-1.89-0.59c-0.53-0.4-0.9-0.95-1.12-1.65l1.17-0.49
				c0.31,1.03,0.92,1.54,1.84,1.54c0.5,0,0.91-0.18,1.22-0.53s0.47-0.82,0.47-1.38v-6.78h1.24v6.67c0,1-0.26,1.78-0.79,2.36
				C299.92,77.18,299.2,77.47,298.3,77.47z"/>
			<path class="st1" d="M306.15,77.25h-1.38l3.64-9.67h1.4l3.65,9.67h-1.38l-0.93-2.62h-4.06L306.15,77.25z M309.09,69.11
				l-1.58,4.36h3.21l-1.58-4.36H309.09z"/>
			<path class="st1" d="M322.73,77.25h-5.43v-9.67h1.24v8.48h4.19V77.25z"/>
			<path class="st1" d="M327.96,77.25h-1.24v-9.67h1.24V77.25z"/>
			<path class="st1" d="M332.61,77.25v-9.67h2.96c1.48,0,2.66,0.45,3.56,1.34c0.9,0.89,1.34,2.06,1.34,3.5
				c0,1.45-0.45,2.62-1.34,3.5c-0.9,0.89-2.08,1.33-3.56,1.33H332.61z M333.85,68.77v7.29h1.71c1.12,0,2.01-0.32,2.66-0.96
				c0.65-0.64,0.97-1.54,0.97-2.68c0-1.13-0.32-2.03-0.97-2.67c-0.65-0.65-1.53-0.97-2.66-0.97H333.85z"/>
		</g>
	</g>
</g>
<g id="V5-pos">
</g>
</svg>
