<?xml version="1.0" encoding="utf-8"?>
<!-- Generator: Adobe Illustrator 23.0.4, SVG Export Plug-In . SVG Version: 6.00 Build 0)  -->
<svg version="1.1" xmlns="http://www.w3.org/2000/svg" xmlns:xlink="http://www.w3.org/1999/xlink" x="0px" y="0px"
	 viewBox="0 0 68.3 38.32" style="enable-background:new 0 0 68.3 38.32;" xml:space="preserve">
<style type="text/css">
	.st0{fill:#FFFFFF;}
	.st1{fill:#2D508A;}
</style>
<g id="V5">
	<g>
		<g>
			<path class="st0" d="M62.58,37.3H18.65C8.37,37.3,0,28.94,0,18.65S8.37,0,18.65,0h37.79C62.98,0,68.3,5.32,68.3,11.86
				c0,6.54-5.32,11.86-11.86,11.86H22.72c-1.8,0-3.26-1.46-3.26-3.26s1.46-3.26,3.26-3.26h33.72c2.94,0,5.34-2.4,5.34-5.34
				s-2.4-5.34-5.34-5.34H18.65c-6.69,0-12.13,5.44-12.13,12.13c0,6.69,5.44,12.13,12.13,12.13h43.92c1.8,0,3.26,1.46,3.26,3.26
				S64.38,37.3,62.58,37.3z"/>
		</g>
	</g>
</g>
<g id="V5-pos">
</g>
</svg>
