<?xml version="1.0" encoding="utf-8"?>
<!-- Generator: Adobe Illustrator 23.0.4, SVG Export Plug-In . SVG Version: 6.00 Build 0)  -->
<svg version="1.1" xmlns="http://www.w3.org/2000/svg" xmlns:xlink="http://www.w3.org/1999/xlink" x="0px" y="0px"
	 viewBox="0 0 343.15 53.49" style="enable-background:new 0 0 343.15 53.49;" xml:space="preserve">
<style type="text/css">
	.st0{fill:#2D508A;}
</style>
<g id="V5">
	<g>
		<g>
			<path d="M110.28,52.9h-8.11L90.99,36.02l-5.48,5.41V52.9h-6.72V0.58h6.72v32.22L101,17.1h8.62v0.29L95.67,31.27l14.61,21.34V52.9
				z"/>
			<path d="M110.94,35c0-5.5,1.73-10.06,5.19-13.66c3.51-3.6,7.92-5.41,13.23-5.41c5.31,0,9.69,1.8,13.15,5.41
				c3.51,3.61,5.26,8.16,5.26,13.66c0,5.55-1.75,10.11-5.26,13.66c-3.46,3.61-7.84,5.41-13.15,5.41c-5.31,0-9.72-1.8-13.23-5.41
				C112.67,45.06,110.94,40.5,110.94,35z M117.66,35c0,3.85,1.12,6.97,3.36,9.35s5.02,3.58,8.33,3.58c3.31,0,6.09-1.19,8.33-3.58
				c2.24-2.39,3.36-5.5,3.36-9.35c0-3.8-1.12-6.89-3.36-9.28c-2.29-2.44-5.07-3.65-8.33-3.65c-3.26,0-6.04,1.22-8.33,3.65
				C118.78,28.11,117.66,31.2,117.66,35z"/>
			<path d="M151.86,35c0-5.5,1.73-10.06,5.19-13.66c3.51-3.6,7.92-5.41,13.23-5.41c5.31,0,9.69,1.8,13.15,5.41
				c3.51,3.61,5.26,8.16,5.26,13.66c0,5.55-1.75,10.11-5.26,13.66c-3.46,3.61-7.84,5.41-13.15,5.41c-5.31,0-9.72-1.8-13.23-5.41
				C153.58,45.06,151.86,40.5,151.86,35z M158.58,35c0,3.85,1.12,6.97,3.36,9.35s5.02,3.58,8.33,3.58c3.31,0,6.09-1.19,8.33-3.58
				c2.24-2.39,3.36-5.5,3.36-9.35c0-3.8-1.12-6.89-3.36-9.28c-2.29-2.44-5.07-3.65-8.33-3.65c-3.26,0-6.04,1.22-8.33,3.65
				C159.7,28.11,158.58,31.2,158.58,35z"/>
			<path d="M201.18,0.58V52.9h-6.72V0.58H201.18z"/>
			<path d="M218.06,4.75c0,1.31-0.46,2.44-1.39,3.36c-0.93,0.93-2.05,1.39-3.36,1.39c-1.31,0-2.44-0.46-3.36-1.39
				c-0.93-0.92-1.39-2.05-1.39-3.36c0-1.32,0.46-2.44,1.39-3.36c0.92-0.92,2.05-1.39,3.36-1.39c1.32,0,2.44,0.46,3.36,1.39
				C217.59,2.31,218.06,3.43,218.06,4.75z M216.67,17.1v35.8h-6.72V17.1H216.67z"/>
			<path d="M256.93,52.9h-8.11l-11.18-16.88l-5.48,5.41V52.9h-6.72V0.58h6.72v32.22l15.49-15.71h8.62v0.29l-13.96,13.88l14.61,21.34
				V52.9z"/>
			<path d="M257.58,35c0-5.5,1.73-10.06,5.19-13.66c3.51-3.6,7.92-5.41,13.23-5.41c5.31,0,9.69,1.8,13.15,5.41
				c3.51,3.61,5.26,8.16,5.26,13.66c0,5.55-1.75,10.11-5.26,13.66c-3.46,3.61-7.84,5.41-13.15,5.41c-5.31,0-9.72-1.8-13.23-5.41
				C259.31,45.06,257.58,40.5,257.58,35z M264.31,35c0,3.85,1.12,6.97,3.36,9.35s5.02,3.58,8.33,3.58c3.31,0,6.09-1.19,8.33-3.58
				c2.24-2.39,3.36-5.5,3.36-9.35c0-3.8-1.12-6.89-3.36-9.28c-2.29-2.44-5.07-3.65-8.33-3.65c-3.26,0-6.04,1.22-8.33,3.65
				C265.43,28.11,264.31,31.2,264.31,35z"/>
			<path d="M337.01,53.49c-2.92,0-5.35-0.9-7.27-2.7c-1.92-1.8-2.91-4.31-2.96-7.53V23.24h-16.66v18.05c0,2.1,0.43,3.61,1.28,4.53
				c0.85,0.93,1.86,1.39,3.03,1.39c1.12,0,2.19-0.22,3.21-0.66l2.12,5.99c-1.75,0.63-3.8,0.95-6.14,0.95c-2.92,0-5.35-0.9-7.27-2.7
				c-1.92-1.8-2.91-4.31-2.96-7.53V23.24h-6.28V17.1h6.28V6.14h6.72V17.1h16.66V6.14h6.72V17.1h8.77v6.14h-8.77v17.83
				c0,2.39,0.46,4.01,1.39,4.86c0.92,0.85,1.97,1.28,3.14,1.28c0.54,0,1.06-0.06,1.57-0.18c0.51-0.12,0.99-0.28,1.42-0.48l2.12,5.99
				C341.39,53.17,339.35,53.49,337.01,53.49z"/>
		</g>
	</g>
	<g>
		<g>
			<path d="M62.58,53.05H18.65C8.37,53.05,0,44.68,0,34.4s8.37-18.65,18.65-18.65h37.79c6.54,0,11.86,5.32,11.86,11.86
				c0,6.54-5.32,11.86-11.86,11.86H22.72c-1.8,0-3.26-1.46-3.26-3.26s1.46-3.26,3.26-3.26h33.72c2.94,0,5.34-2.4,5.34-5.34
				s-2.4-5.34-5.34-5.34H18.65c-6.69,0-12.13,5.44-12.13,12.13c0,6.69,5.44,12.13,12.13,12.13h43.92c1.8,0,3.26,1.46,3.26,3.26
				S64.38,53.05,62.58,53.05z"/>
		</g>
	</g>
	<g>
		
			<text transform="matrix(1 0 0 1 940.6984 77.252)" class="st0" style="font-family:'ProductSans-Regular'; font-size:13.5px; letter-spacing:2;">DIGITaalsed õppematerjalid</text>
	</g>
</g>
<g id="V5-pos">
	
		<text transform="matrix(1 0 0 1 936.5867 52.9014)" style="fill:#19A7F1; font-family:'ProductSans-Regular'; font-size:73.0683px;">koolikott</text>
	<path class="st0" d="M924.46,53.05h-43.92c-10.29,0-18.65-8.37-18.65-18.65s8.37-18.65,18.65-18.65h37.79
		c6.54,0,11.86,5.32,11.86,11.86c0,6.54-5.32,11.86-11.86,11.86h-33.72c-1.8,0-3.26-1.46-3.26-3.26s1.46-3.26,3.26-3.26h33.72
		c2.94,0,5.34-2.4,5.34-5.34s-2.4-5.34-5.34-5.34h-37.79c-6.69,0-12.13,5.44-12.13,12.13c0,6.69,5.44,12.13,12.13,12.13h43.92
		c1.8,0,3.26,1.46,3.26,3.26S926.27,53.05,924.46,53.05z"/>
</g>
</svg>
