<?xml version="1.0" encoding="utf-8"?>
<!-- Generator: Adobe Illustrator 16.0.0, SVG Export Plug-In . SVG Version: 6.00 Build 0)  -->
<!DOCTYPE svg PUBLIC "-//W3C//DTD SVG 1.1//EN" "http://www.w3.org/Graphics/SVG/1.1/DTD/svg11.dtd">
<svg version="1.1" id="ID-kaart" xmlns="http://www.w3.org/2000/svg" xmlns:xlink="http://www.w3.org/1999/xlink" x="0px" y="0px"
	 width="21.968px" height="15px" viewBox="0 0 21.968 15" enable-background="new 0 0 21.968 15" xml:space="preserve">
<g>
	<path fill="#FFFFFF" d="M15.096,0.249c-0.84,0-5.938,0-5.938,0c-2.021,0-2.084,1.569-2.084,1.927c0,0.358-0.03,7.308-0.03,10.106
		c0,2.658,2.425,2.456,2.425,2.456c0.353,0,1.582,0,5.317,0c6.747,0,7.183-5.317,7.183-6.778c0-0.513,0-0.638,0-1.12
		C21.734,1.041,17.008,0.249,15.096,0.249z M13.604,10.773h-1.306l-0.016-6.545h1.399c0,0,2.906-0.232,2.906,3.188
		S13.604,10.773,13.604,10.773z"/>
	<path fill="#FFFFFF" d="M0,7.369l5.41-2.146l-0.031,7.295c0,0,0.078,2.481-2.658,2.481s-2.715-2.311-2.715-2.311L0,7.369z"/>
	<path fill="#FFFFFF" d="M5.41,3.452L0,5.598l0.031-3.116c0,0-0.078-2.481,2.658-2.481s2.715,2.311,2.715,2.311L5.41,3.452z"/>
</g>
</svg>
